<?xml version="1.0" encoding="UTF-8" standalone="no"?>
<svg
   xmlns:dc="http://purl.org/dc/elements/1.1/"
   xmlns:cc="http://creativecommons.org/ns#"
   xmlns:rdf="http://www.w3.org/1999/02/22-rdf-syntax-ns#"
   xmlns:svg="http://www.w3.org/2000/svg"
   xmlns="http://www.w3.org/2000/svg"
   viewBox="0 0 92.4636 41.054668"
   height="41.054668"
   width="92.4636"
   xml:space="preserve"
   id="svg2"
   version="1.1"><metadata
     id="metadata8"><rdf:RDF><cc:Work
         rdf:about=""><dc:format>image/svg+xml</dc:format><dc:type
           rdf:resource="http://purl.org/dc/dcmitype/StillImage" /><dc:title></dc:title></cc:Work></rdf:RDF></metadata><defs
     id="defs6"><clipPath
       id="clipPath18"
       clipPathUnits="userSpaceOnUse"><path
         id="path16"
         d="M 0,30.791 H 69.348 V 0 H 0 Z" /></clipPath></defs><g
     transform="matrix(1.3333333,0,0,-1.3333333,0,41.054667)"
     id="g10"><g
       id="g12"><g
         clip-path="url(#clipPath18)"
         id="g14"><g
           transform="translate(61.6162,24.0596)"
           id="g20"><path
             id="path22"
             style="fill:#231f20;fill-opacity:1;fill-rule:nonzero;stroke:none"
             d="m 0,0 h -3.08 l -2.547,-8.867 h 0.993 l 2.279,7.928 H 0.494 C 0.487,-0.363 0.344,0 0,0" /></g><g
           transform="translate(67.6748,28.332)"
           id="g24"><path
             id="path26"
             style="fill:#231f20;fill-opacity:1;fill-rule:nonzero;stroke:none"
             d="m 0,0 c 3.066,-5.245 -1.764,-18.67 -7.849,-18.67 h -11.148 l -0.27,-0.939 H -7.125 C -0.633,-19.609 4.434,-4.322 0,0" /></g><g
           transform="translate(50.0195,17.8311)"
           id="g28"><path
             id="path30"
             style="fill:none;stroke:#231f20;stroke-width:0.78899997;stroke-linecap:butt;stroke-linejoin:miter;stroke-miterlimit:10;stroke-dasharray:none;stroke-opacity:1"
             d="M 0,0 -0.143,-0.494 -2.335,-8.169 H 9.807 c 7.56,0 13.188,20.734 4.128,20.734 H 10.984 M 9.817,-1.877 C 9.526,-2.35 9.263,-2.639 9.065,-2.639 H 5.97 l 2.547,8.868 h 3.08 c 0.578,0 0.598,-1.02 0.332,-2.369" /></g><g
           transform="translate(44.9814,14.7744)"
           id="g32"><path
             id="path34"
             style="fill:#231f20;fill-opacity:1;fill-rule:nonzero;stroke:none"
             d="m 0,0 h -6.56 l -1.463,-5.111 h -6.416 l -0.269,-0.941 h 7.407 l 1.465,5.112 H 0.723 L 2.592,5.58 H 1.6 Z" /></g><g
           transform="translate(52.3232,29.4551)"
           id="g36"><path
             id="path38"
             style="fill:#231f20;fill-opacity:1;fill-rule:nonzero;stroke:none"
             d="m 0,0 -1.52,-5.3 h -9.692 l -0.819,-2.862 h 0.993 l 0.55,1.921 h 9.691 L 0.994,0 Z" /></g><g
           transform="translate(33.021,21.7744)"
           id="g40"><path
             id="path42"
             style="fill:none;stroke:#231f20;stroke-width:0.78899997;stroke-linecap:butt;stroke-linejoin:miter;stroke-miterlimit:10;stroke-dasharray:none;stroke-opacity:1"
             d="m 0,0 -1.008,-3.518 -2.466,-8.593 H 3.937 L 5.401,-7 h 6.559 l 1.87,6.519 H 7.271 L 8.09,2.381 h 9.693 l 1.788,6.239 h -9.69" /></g><g
           transform="translate(33.2695,29.4551)"
           id="g44"><path
             id="path46"
             style="fill:#231f20;fill-opacity:1;fill-rule:nonzero;stroke:none"
             d="m 0,0 -5.675,-19.792 h -8.211 l -0.269,-0.94 h 9.203 L 0.994,0 Z" /></g><g
           transform="translate(21.9634,22.1211)"
           id="g48"><path
             id="path50"
             style="fill:none;stroke:#231f20;stroke-width:0.78899997;stroke-linecap:butt;stroke-linejoin:miter;stroke-miterlimit:10;stroke-dasharray:none;stroke-opacity:1"
             d="M 0,0 -3.572,-12.458 H 5.631 L 11.575,8.273 H 6.972" /></g><g
           transform="translate(21.373,20.0635)"
           id="g52"><path
             id="path54"
             style="fill:#231f20;fill-opacity:1;fill-rule:nonzero;stroke:none"
             d="M 0,0 C -5.893,1.226 -12.776,0.682 -21.373,-3.564 -14.17,-2.646 -7.867,-4.53 -2.099,-7.32 Z" /></g><g
           transform="translate(37.7451,12.4131)"
           id="g56"><path
             id="path58"
             style="fill:#231f20;fill-opacity:1;fill-rule:nonzero;stroke:none"
             d="m 0,0 -0.787,-2.75 h -7.411 l 1.867,6.506 c -0.559,0.305 -1.126,0.602 -1.7,0.889 l -2.12,-7.395 h -2.614 C 0.906,-10.739 11.995,-20.344 26.293,-1.469 15.566,-9.036 8.133,-4.976 0,0" /></g><g
           transform="translate(64.083,11.0049)"
           id="g60"><path
             id="path62"
             style="fill:#231f20;fill-opacity:1;fill-rule:nonzero;stroke:none"
             d="M 0,0 C -0.014,-0.02 -0.03,-0.041 -0.045,-0.061 0.018,-0.017 0.078,0.026 0.143,0.07 Z" /></g></g></g></g></svg>